<?xml version="1.0" encoding="UTF-8"?>
<svg id="Layer_1" data-name="Layer 1" xmlns="http://www.w3.org/2000/svg" viewBox="0 0 466.6 246.5">
  <defs>
    <style>
      .cls-1 {
        fill: #472019;
      }

      .cls-1,
      .cls-2 {
        stroke-width: 0px;
      }

      .cls-2 {
        fill: #f7b617;
      }
    </style>
  </defs>
  <g>
    <g>
      <path class="cls-2"
        d="M108.63,199.04c-7.44,7.04-23.38,9.25-32.83,7.34.3-1.43.53-2.51.53-2.51-5.84-1.71-11.38-3.33-18.36-5.37,3.61-2.78,5.55-4.28,9.1-7.01-11.66,1.51-18.53-2.81-23.68-11.03,2.63-.88,4.75-1.6,8.31-2.79-9.87-3.08-16.66-7.48-21.25-14.43,6.55-2.3,12.56-4.42,18.57-6.53-30.75-3.96-44.57-16.72-40.57-37.74,5.13,2.58,10.2,5.55,15.58,7.72,5.37,2.16,11.05,3.53,16.6,5.24.3-.75.19-.48.49-1.23-1.64-.83-3.42-1.46-4.92-2.51-8.56-6-17.86-11.24-25.37-18.36C.12,99.67-1.73,82.71,5.27,72.9c11.7,15.39,27.6,25.1,43.28,33.77-9.45-9.2-20.18-18.17-29.01-28.74-6.3-7.55-11.38-16.77-14.6-26.05-1.09-3.15-1.56-6.44-1.52-9.7.14-12.03,7.23-23.76,15.82-27.03,4.68,9.14,8.34,18.79,13.96,27.03.27.39.54.78.82,1.17,10.28,14.32,22.02,27.62,33.19,41.31,4.16,5.09,6.69,6.33,10.77,11.49,2.01,2.53,3.73,5.87,5.1,9.61,1.21,7.51,1.63,15.14,1.13,22.79-.41,6.71-1.19,13.37-1.78,20.09-.6,7.04-.99,14.29.44,21.29.84,4.38,2.58,8.55,5.01,12.27.02.05.05.1.08.15.45.89,1.08,1.73,1.86,2.54,1.51,1.91,3.2,3.67,5.05,5.24,4.16,3.58,8.83,6.48,13.74,8.9Z" />
      <path class="cls-2"
        d="M168.9,140.73c1.28,3.97-2.25,6.11-4.45,8.71-2.55,3.22-3.38.28-6.21,2.76.87-2.28-1.05-2.75-2.42-3.56-1.93-1.14-4.27-2.68-6.51-2.6,1.51,1.75,2.94,3.46,4.46,5.1.96.78,2.13-.04,3.27-.17-1.66,1.75-1.85,3.84-2.07,6.04-.24,2.36-1.43,4.33-3.7,5.45-5.02,2.81-7.21-4.28-10.03-7.13-3.07-3.94-5.95-8.34-10.61-10.51-10.51-5.24-8.88-15.7-3.76-24.25-7.55,4.97-8.15,14.34-1.83,23.61-24.97,14.17-31.81,29.59-14.23,52.92-4.07-2.76-7.94-5.79-11.41-9.3-5.19-5.17-8.83-11.71-9.64-19.04-.99-8.51.69-17.27,1.85-25.9.95-6.85,1.88-13.76,2.02-20.72.11-4.72-.18-9.45-.74-14.15-.21-1.68-.46-3.35-.76-5,.4-3.21,1.24-6.31,2.87-9.23,2.52-4.15,6.52-5.9,11.12-6.67.72-.12,1.49-.61,2-1.15,2.64-2.87,5.24-5.78,7.78-8.73.81-.93,1.5-.81,2.43-.25,3.05,1.77,4.23,4.47,4.56,7.93,2.02-4.05,3.8-7.81,6.9-10.94.05-.05.13-.04.17.02,2.46,3.84,3.63,7.76,2.29,11.98,9.45,4.69,26.06,11.82,28.21,23.7-3.96-.64-5.53-2.16-16.41-7.99,2.49,1.78,9.45,6.48,12.03,8.13,1.17.5,3.06-.02,4.38-.14,2.93,7.28,7.14,13.71,10.83,20.58,1.88,3.81,3.85,9.97-2.37,10.5Z" />
    </g>
    <polygon class="cls-2"
      points="87.12 33.92 73.83 40.9 76.37 26.1 65.62 15.62 80.48 13.46 87.12 0 93.77 13.46 108.63 15.62 97.88 26.1 100.41 40.9 87.12 33.92" />
    <polygon class="cls-2"
      points="132.35 52.35 123.34 57.09 125.06 47.06 117.77 39.95 127.84 38.49 132.35 29.36 136.85 38.49 146.92 39.95 139.63 47.06 141.35 57.09 132.35 52.35" />
    <polygon class="cls-2"
      points="164.03 77 158.4 79.96 159.48 73.7 154.92 69.26 161.21 68.35 164.03 62.65 166.84 68.35 173.13 69.26 168.58 73.7 169.65 79.96 164.03 77" />
  </g>
  <g>
    <path class="cls-1"
      d="M233.45,77.64l-17.86-17.66v17.66h-3.64V29.54h3.64v29.89l15.73-16.63h4.81l-16.01,16.9,18.14,17.93h-4.81Z" />
    <path class="cls-1"
      d="M270.28,77.64h-3.64v-5.36c-2.2,3.16-5.91,6.25-12.16,6.25-6.94,0-12.09-4.33-12.09-10.38,0-10.92,13.26-10.79,23.16-10.79.34,0,.76.07,1.1.07v-2.34c0-4.81-2.2-9.48-9.07-9.48-4.67,0-7.56,1.99-9.89,3.78l-2.95-2.27c2.68-2.34,6.6-5.15,12.85-5.15,7.76,0,12.71,4.95,12.71,13.12v22.54ZM266.64,67.13v-6.05h-1.17c-8.04,0-19.31-.76-19.31,7.08,0,4.53,4.26,6.67,8.31,6.67,7.83,0,11.27-4.95,12.16-7.7Z" />
    <path class="cls-1"
      d="M296.67,41.98v4.26c-7.7,0-12.37,4.88-12.37,13.67v17.73h-3.71v-34.84h3.71v7.49c2.41-4.67,6.67-8.31,12.37-8.31Z" />
    <path class="cls-1"
      d="M336.25,42.8v31.19c0,8.86-5.98,17.52-17.66,17.52-6.12,0-11.61-2.4-14.98-6.73l3.09-2.06c2.82,3.5,6.8,5.15,11.89,5.15,9.76,0,13.95-7.01,13.95-13.88v-5.08c-2.68,4.67-7.56,7.76-13.67,7.76-9.76,0-17.38-7.63-17.38-17.38s7.63-17.31,17.38-17.31c6.12,0,10.99,3.02,13.67,7.76v-6.94h3.71ZM332.54,59.29c0-7.7-5.98-13.67-13.67-13.67s-13.74,5.98-13.74,13.67,5.98,13.67,13.74,13.67,13.67-5.91,13.67-13.67Z" />
    <path class="cls-1"
      d="M380.29,60.26c0,10.03-7.97,18.28-18.07,18.28s-18.07-8.25-18.07-18.28,8.04-18.28,18.07-18.28,18.07,8.18,18.07,18.28ZM376.65,60.26c0-8.04-6.39-14.64-14.43-14.64s-14.43,6.6-14.43,14.64,6.39,14.57,14.43,14.57,14.43-6.53,14.43-14.57Z" />
  </g>
  <g>
    <path class="cls-1"
      d="M296.76,128.57v51.42h-32.12v-41.37c0-6.49-3.08-11.36-10.38-11.36s-10.22,4.87-10.22,11.36v41.37h-32.12v-82.24h32.12v8.44c4.7-5.68,11.84-10.38,22.55-10.38,24.66,0,30.17,20.76,30.17,32.77Z" />
    <path class="cls-1"
      d="M394.58,146.9h-55.8c2.27,6.97,7.62,11.03,16.38,11.03,8.11,0,13.14-3.73,15.25-6.81l21.25,12.65c-6.33,9.73-19.3,18.33-36.5,18.33-29.69,0-47.85-18.65-47.85-43.15s18.49-43.15,43.64-43.15,46.88,16.38,43.64,51.1ZM364.89,131c-1.62-6.98-5.68-11.03-13.3-11.03-6.81,0-11.19,4.22-12.98,11.03h26.28Z" />
    <path class="cls-1"
      d="M443.89,125.33v17.36c0,5.19,2.76,9.08,9.9,9.08,3.08,0,5.51-.65,6.33-.81v29.04c-3.41.81-6.33,1.62-14.28,1.62-27.41,0-34.07-20.11-34.07-36.17v-20.12h-10.22v-27.58h10.22v-17.19h32.12v17.19h16.22v27.58h-16.22Z" />
  </g>
  <g>
    <path class="cls-1"
      d="M224.47,210.2v8.11h-1.46v-8.11c0-1.9-.9-4.53-4.07-4.53s-4.56,2.63-4.56,4.53v8.11h-1.44v-18.99h1.44v7.41c.9-1.44,2.39-2.5,4.56-2.5,3.96,0,5.53,3.28,5.53,5.97Z" />
    <path class="cls-1" d="M228.54,204.56h1.47v13.75h-1.47v-13.75Z" />
    <path class="cls-1" d="M243.08,216.88v1.44h-9.96v-1.44l7.87-10.85h-7.62v-1.46h9.47v1.46l-7.87,10.85h8.11Z" />
    <path class="cls-1" d="M255.64,197.78v24.58h-1.44v-24.58h1.44Z" />
    <path class="cls-1"
      d="M280.22,204.56v12.32c0,3.5-2.36,6.92-6.97,6.92-2.42,0-4.58-.95-5.92-2.66l1.22-.81c1.11,1.38,2.69,2.03,4.69,2.03,3.85,0,5.51-2.77,5.51-5.48v-2.01c-1.06,1.84-2.98,3.07-5.4,3.07-3.85,0-6.86-3.01-6.86-6.86s3.01-6.84,6.86-6.84c2.41,0,4.34,1.19,5.4,3.07v-2.74h1.47ZM278.76,211.07c0-3.04-2.36-5.4-5.4-5.4s-5.43,2.36-5.43,5.4,2.36,5.4,5.43,5.4,5.4-2.33,5.4-5.4Z" />
    <path class="cls-1"
      d="M295.82,204.56v13.75h-1.47v-2.14c-.87,1.41-2.36,2.5-4.53,2.5-3.99,0-5.53-3.28-5.53-5.97v-8.14h1.46v8.14c0,1.87.9,4.5,4.07,4.5s4.53-2.63,4.53-4.5v-8.14h1.47ZM288.71,200.74c0,.62-.49,1.11-1.11,1.11s-1.11-.49-1.11-1.11.49-1.11,1.11-1.11,1.11.52,1.11,1.11ZM293.6,200.74c0,.62-.49,1.11-1.09,1.11s-1.11-.49-1.11-1.11.49-1.11,1.11-1.11,1.09.52,1.09,1.11Z" />
    <path class="cls-1" d="M311.42,204.56l-5.75,13.75h-1.55l-5.72-13.75h1.55l4.96,11.88,4.94-11.88h1.57Z" />
    <path class="cls-1"
      d="M326.37,212.18h-11.83c.33,2.82,2.66,5.02,5.56,5.02,1.82,0,3.31-.68,4.42-1.98l1.25.79c-1.38,1.71-3.34,2.66-5.67,2.66-3.96,0-7.05-3.26-7.05-7.22s2.88-7.22,6.78-7.22,6.78,3.17,6.54,7.95ZM314.54,210.72h10.34c-.33-3.01-2.42-5.05-5.05-5.05-2.88,0-4.99,2.25-5.29,5.05Z" />
    <path class="cls-1"
      d="M341.02,210.2v8.11h-1.44v-8.11c0-1.9-.89-4.53-4.07-4.53s-4.56,2.63-4.56,4.53v8.11h-1.44v-13.75h1.44v2.17c.9-1.44,2.39-2.5,4.56-2.5,3.96,0,5.51,3.28,5.51,5.97Z" />
    <path class="cls-1" d="M354.26,197.78v24.58h-1.44v-24.58h1.44Z" />
    <path class="cls-1"
      d="M378.43,212.18h-11.83c.33,2.82,2.66,5.02,5.56,5.02,1.82,0,3.31-.68,4.42-1.98l1.25.79c-1.38,1.71-3.34,2.66-5.67,2.66-3.96,0-7.05-3.26-7.05-7.22s2.88-7.22,6.78-7.22,6.78,3.17,6.54,7.95ZM366.6,210.72h10.34c-.33-3.01-2.42-5.05-5.05-5.05-2.88,0-4.99,2.25-5.29,5.05Z" />
    <path class="cls-1"
      d="M400.46,209.72v8.6h-1.46v-8.6c0-1.9-.92-4.04-3.47-4.04-2.77,0-3.77,2.39-3.77,4.29v8.36h-1.47v-8.6c0-1.9-.92-4.04-3.47-4.04-2.79,0-3.77,2.39-3.77,4.29v8.36h-1.46v-13.75h1.46v2.09c.76-1.38,2.01-2.41,3.77-2.41,2.2,0,3.64,1.22,4.37,2.79.84-1.57,2.36-2.79,4.34-2.79,3.34,0,4.94,2.79,4.94,5.48Z" />
    <path class="cls-1"
      d="M416.03,210.2v8.11h-1.44v-8.11c0-1.9-.89-4.53-4.07-4.53s-4.56,2.63-4.56,4.53v8.11h-1.44v-13.75h1.44v2.17c.9-1.44,2.39-2.5,4.56-2.5,3.96,0,5.51,3.28,5.51,5.97Z" />
    <path class="cls-1"
      d="M419.88,200.71c0-.52.41-.95.95-.95s.95.43.95.95c0,.54-.41.98-.95.98s-.95-.43-.95-.98ZM420.1,204.56h1.46v13.75h-1.46v-13.75Z" />
    <path class="cls-1" d="M436.68,204.56l-7.73,18.99h-1.55l2.47-6.05-5.72-12.94h1.55l4.91,11.1,4.53-11.1h1.55Z" />
    <path class="cls-1"
      d="M451.62,212.18h-11.83c.33,2.82,2.66,5.02,5.56,5.02,1.82,0,3.31-.68,4.42-1.98l1.25.79c-1.38,1.71-3.34,2.66-5.67,2.66-3.96,0-7.05-3.26-7.05-7.22s2.88-7.22,6.78-7.22,6.78,3.17,6.54,7.95ZM439.8,210.72h10.34c-.33-3.01-2.42-5.05-5.05-5.05-2.88,0-4.99,2.25-5.29,5.05Z" />
    <path class="cls-1"
      d="M460.66,216.96v1.44c-2.22.22-4.69-.03-4.69-4.18v-8.19h-2.42v-1.46h2.42v-2.88h1.44v2.88h3.23v1.46h-3.23v8.19c0,2.04.6,2.98,3.26,2.74Z" />
  </g>
</svg>