<?xml version="1.0" encoding="UTF-8"?>
<svg id="Layer_1" data-name="Layer 1" xmlns="http://www.w3.org/2000/svg" viewBox="0 0 466.62 246.53">
  <defs>
    <style>
      .cls-1 {
        font-size: 27.09px;
      }

      .cls-1, .cls-2 {
        font-family: MADETOMMY-Light, 'MADE TOMMY';
        font-weight: 300;
      }

      .cls-1, .cls-2, .cls-3 {
        fill: #be1e2d;
      }

      .cls-2 {
        font-size: 68.62px;
      }

      .cls-3 {
        font-family: MADETOMMY-Black, 'MADE TOMMY';
        font-size: 162px;
        font-weight: 800;
      }

      .cls-4 {
        letter-spacing: 0em;
      }

      .cls-5 {
        fill: #414042;
      }
    </style>
  </defs>
  <text class="cls-2" transform="translate(207.15 78.62)"><tspan x="0" y="0">nakil</tspan></text>
  <text class="cls-3" transform="translate(204.98 180.84)"><tspan x="0" y="0">n</tspan><tspan class="cls-4" x="99.31" y="0">e</tspan><tspan x="191.81" y="0">t</tspan></text>
  <text class="cls-1" transform="translate(211.26 219.11)"><tspan x="0" y="0">hız | güven | emniyet</tspan></text>
  <g>
    <path class="cls-5" d="M109.23,202.22c-7.56,7.16-23.75,9.4-33.35,7.46,.31-1.45,.54-2.55,.54-2.55-5.93-1.73-11.57-3.38-18.65-5.46,3.67-2.83,5.64-4.34,9.24-7.12-11.84,1.53-18.83-2.85-24.06-11.21,2.67-.9,4.83-1.62,8.44-2.84-10.03-3.12-16.93-7.6-21.59-14.66,6.66-2.34,12.76-4.49,18.86-6.63-31.24-4.03-45.28-16.99-41.22-38.34,5.21,2.62,10.36,5.64,15.83,7.84,5.46,2.2,11.23,3.59,16.87,5.33,.31-.77,.19-.49,.5-1.25-1.67-.84-3.48-1.49-5-2.55-8.69-6.09-18.14-11.42-25.78-18.65-10.89-10.33-12.77-27.55-5.66-37.52,11.89,15.64,28.05,25.5,43.97,34.31-9.6-9.34-20.5-18.46-29.47-29.2-6.4-7.67-11.57-17.04-14.83-26.47-1.11-3.2-1.59-6.54-1.55-9.86,.15-12.23,7.34-24.14,16.07-27.46,4.76,9.28,8.47,19.09,14.19,27.46,.27,.4,.55,.8,.83,1.19,10.45,14.55,22.37,28.06,33.72,41.97,4.23,5.18,6.8,6.43,10.95,11.67,2.04,2.58,3.79,5.96,5.18,9.76,1.23,7.63,1.66,15.39,1.15,23.15-.41,6.81-1.21,13.58-1.8,20.41-.61,7.15-1,14.52,.45,21.64,.85,4.45,2.62,8.69,5.09,12.47,.03,.05,.05,.1,.08,.15,.45,.91,1.1,1.76,1.89,2.58,1.53,1.94,3.25,3.73,5.13,5.33,4.23,3.64,8.97,6.59,13.96,9.05Z"/>
    <polygon class="cls-5" points="87.38 34.46 73.88 41.56 76.46 26.52 65.53 15.87 80.63 13.68 87.38 0 94.13 13.68 109.23 15.87 98.31 26.52 100.88 41.56 87.38 34.46"/>
    <polygon class="cls-5" points="133.33 53.19 124.18 58 125.92 47.81 118.52 40.59 128.75 39.11 133.33 29.83 137.9 39.11 148.14 40.59 140.73 47.81 142.48 58 133.33 53.19"/>
    <polygon class="cls-5" points="165.52 78.24 159.8 81.24 160.89 74.88 156.27 70.37 162.66 69.44 165.52 63.65 168.37 69.44 174.76 70.37 170.14 74.88 171.23 81.24 165.52 78.24"/>
    <g>
      <g>
        <path class="cls-5" d="M161.87,217.93c-3.43-1.55-6.65-2.7-9.55-4.4-2.9-1.7-5.49-3.95-7.98-5.79,.26,2.28,.69,4.89,.82,7.51,.22,4.42-.41,8.73-2.58,12.66-2.21,3.98-5.19,7.15-9.88,8.13-4.74,.99-8.53-1.44-9.34-5.87-.05-.25-.04-.51-.06-.76,.12-.1,.23-.19,.35-.29,.06,.2,.08,.45,.2,.61,1.8,2.4,4.49,3,6.73,1.5,2.3-1.55,3.04-4.77,1.65-7.2-1.66-2.9-5.7-4.26-9.32-3.14-6.43,1.98-9.51,9.22-6.72,15.76,2.44,5.71,7.13,8.43,12.93,9.44,15.66,2.73,29.59-7.31,32.14-23.08,.29-1.8,.45-3.62,.63-5.07Z"/>
        <path class="cls-5" d="M183.71,217.12c-3.89-1.63-7.59-3.05-11.18-4.7-7.46-3.42-14.1-7.92-19.28-14.45-2.6-3.28-6.46-4.14-10.42-2.84-1.69,.55-2.99,3.15-1.52,4.97,10.15,12.56,23.21,18.4,39.32,17.42,.95-.06,1.88-.24,3.08-.39Z"/>
      </g>
      <path class="cls-5" d="M162.56,199.19c-2.2-11.84-4.7-23.62-8.91-34.94-.03-.08-.06-.17-.09-.25-3.39-9.09-7.41-17.89-13.37-25.66-4.24-5.53-9.17-9.8-14.8-12.76-.38-.2-.77-.4-1.16-.58-4.98-2.42-10.5-3.85-16.57-4.26-.11,0-.22,.03-.58,.09,2.94,1.64,5.34,3.55,6.59,6.92-1.92-1.27-3.55-2.42-5.24-3.47-4.85-3.01-9.89-5.57-15.4-7.01,.13,2.36,.17,4.73,.12,7.09-.14,7.06-1.09,14.08-2.05,21.05-1.18,8.76-2.89,17.66-1.88,26.31,.28,2.55,.9,5.01,1.81,7.35,1.74,4.49,4.52,8.54,7.99,12,3.52,3.57,7.45,6.64,11.59,9.45,.23-.59,.56-1.11,.62-1.65,.15-1.43,.34-2.88,.25-4.3-.27-4.35,.6-8.47,1.92-12.59,2.48-7.73,3.21-15.62,1.33-23.62-.32-1.36-.72-2.68-1.2-3.94-1.85-4.9-4.86-9.11-8.83-12.73-.35-.32-.7-.64-.9-1.21,.43,.23,.88,.44,1.29,.7,4.82,3.03,8.31,6.95,10.45,11.7,1.11,2.47,1.86,5.18,2.23,8.1,.4,3.09,.25,6.27,.17,9.4-.14,5.72-.46,11.44,.67,17.1,.15,.77,.35,1.53,.58,2.28,1.56,5.15,5.09,7.98,10.38,8.64,1.55,.19,3.12,.22,4.77,.33-.53-2.65-1.02-5.13-1.53-7.68,.35,.03,.47,0,.51,.04,1.86,2.59,4.3,3.14,7.27,2.22,1.74-.54,3.55-.92,5.35-1.22,3.49-.58,6.27,.65,8.59,3.32,2.43,2.8,5.03,5.44,7.57,8.14,.32,.34,.71,.61,1.36,.8-.29-1.72-.56-3.44-.88-5.16Zm-30.81-36.36c-2.73,0-5.02-2.27-5.03-5-.01-2.74,2.23-5.01,4.98-5.03,2.78-.03,5.02,2.14,5.07,4.91,.05,2.81-2.21,5.12-5.02,5.12Z"/>
    </g>
  </g>
</svg>