<?xml version="1.0" encoding="utf-8"?>
<!-- Generator: Adobe Illustrator 27.0.1, SVG Export Plug-In . SVG Version: 6.00 Build 0)  -->
<svg version="1.1" id="Layer_1" xmlns="http://www.w3.org/2000/svg" xmlns:xlink="http://www.w3.org/1999/xlink" x="0px" y="0px"
	 viewBox="0 0 466.6 246.5" style="enable-background:new 0 0 466.6 246.5;" xml:space="preserve">
<style type="text/css">
	.st0{enable-background:new    ;}
	.st1{fill:#BE1E2D;}
	.st2{fill:#414042;}
</style>
<g class="st0">
	<path class="st1" d="M241.4,58.1v20.5h-3.6V58.1c0-4.8-2.3-11.5-10.3-11.5s-11.5,6.7-11.5,11.5v20.5h-3.6V43.8h3.6v5.5
		c2.3-3.6,6-6.3,11.5-6.3C237.5,43,241.4,51.3,241.4,58.1z"/>
	<path class="st1" d="M277.1,78.6h-3.6v-5.4c-2.2,3.2-5.9,6.2-12.1,6.2c-6.9,0-12.1-4.3-12.1-10.4c0-10.9,13.2-10.8,23.1-10.8
		c0.3,0,0.8,0.1,1.1,0.1v-2.3c0-4.8-2.2-9.5-9.1-9.5c-4.7,0-7.5,2-9.9,3.8l-3-2.3c2.7-2.3,6.6-5.1,12.8-5.1
		c7.8,0,12.7,4.9,12.7,13.1V78.6z M273.5,68.1v-6c-0.4,0-0.8,0-1.2,0c-8,0-19.3-0.8-19.3,7.1c0,4.5,4.3,6.7,8.3,6.7
		C269.2,75.8,272.6,70.9,273.5,68.1z"/>
	<path class="st1" d="M308.9,78.6L291.1,61v17.6h-3.6v-48h3.6v29.8l15.7-16.6h4.8l-16,16.9l18.1,17.9H308.9z"/>
	<path class="st1" d="M320.4,34.1c0-1.3,1-2.4,2.4-2.4s2.4,1.1,2.4,2.4c0,1.4-1,2.5-2.4,2.5S320.4,35.5,320.4,34.1z M320.9,43.8h3.7
		v34.8h-3.7V43.8z"/>
	<path class="st1" d="M338.6,30.6v48h-3.6v-48H338.6z"/>
</g>
<g class="st0">
	<path class="st1" d="M294.7,129.5v51.4h-29.2v-44.2c0-6.5-4.5-11.2-11.7-11.2c-7.1,0-11.7,4.7-11.7,11.2v44.2h-29.2V98.7h29.2v8.7
		c4.2-5.8,11.2-10.7,22.4-10.7C290.4,96.8,294.7,117.5,294.7,129.5z"/>
</g>
<g class="st0">
	<path class="st1" d="M392.9,147.8L336,148c2.3,7.8,8.4,12.3,18,12.3c7.3,0,12.6-3.7,15.2-6.8l19.6,11.7
		c-5.8,10.2-18.8,17.8-34.8,17.8c-27.7,0-46.5-17.3-46.5-42.9c0-24.1,18.3-43.3,43.4-43.3C375.2,96.8,396.6,114.6,392.9,147.8z
		 M366.2,131.9c-1.6-7.6-6.6-12.5-15.2-12.5c-7.5,0-12.8,5-14.9,12.6L366.2,131.9z"/>
</g>
<g class="st0">
	<path class="st1" d="M441.8,123.3V145c0,7.5,3.7,11.7,11.2,11.7c2.1,0,3.7-0.3,5-0.5v24.6c-2.9,1-6,1.6-12.8,1.6
		c-25.6,0-32.6-18.6-32.6-34.7v-24.5h-10.2V98.7h10.2V81.5h29.2v17.2H458v24.6H441.8z"/>
</g>
<g class="st0">
	<path class="st1" d="M224.8,211v8.1h-1.5V211c0-1.9-0.9-4.5-4.1-4.5s-4.6,2.6-4.6,4.5v8.1h-1.4v-19h1.4v7.4
		c0.9-1.4,2.4-2.5,4.6-2.5C223.2,205.1,224.8,208.3,224.8,211z"/>
	<path class="st1" d="M228.9,205.4h1.5v13.7h-1.5V205.4z"/>
	<path class="st1" d="M243.4,217.7v1.4h-9.9v-1.4l7.9-10.8h-7.6v-1.5h9.5v1.5l-7.9,10.8H243.4z"/>
	<path class="st1" d="M255.9,198.6v24.5h-1.4v-24.5H255.9z"/>
	<path class="st1" d="M280.5,205.4v12.3c0,3.5-2.4,6.9-7,6.9c-2.4,0-4.6-0.9-5.9-2.7l1.2-0.8c1.1,1.4,2.7,2,4.7,2
		c3.8,0,5.5-2.8,5.5-5.5v-2c-1.1,1.8-3,3.1-5.4,3.1c-3.8,0-6.9-3-6.9-6.9c0-3.8,3-6.8,6.9-6.8c2.4,0,4.3,1.2,5.4,3.1v-2.7H280.5z
		 M279,211.9c0-3-2.4-5.4-5.4-5.4c-3.1,0-5.4,2.4-5.4,5.4c0,3.1,2.4,5.4,5.4,5.4C276.7,217.3,279,214.9,279,211.9z"/>
	<path class="st1" d="M296,205.4v13.7h-1.5V217c-0.9,1.4-2.4,2.5-4.5,2.5c-4,0-5.5-3.3-5.5-6v-8.1h1.5v8.1c0,1.9,0.9,4.5,4.1,4.5
		s4.5-2.6,4.5-4.5v-8.1H296z M289,201.6c0,0.6-0.5,1.1-1.1,1.1c-0.6,0-1.1-0.5-1.1-1.1c0-0.6,0.5-1.1,1.1-1.1
		C288.5,200.4,289,201,289,201.6z M293.8,201.6c0,0.6-0.5,1.1-1.1,1.1c-0.6,0-1.1-0.5-1.1-1.1c0-0.6,0.5-1.1,1.1-1.1
		C293.3,200.4,293.8,201,293.8,201.6z"/>
	<path class="st1" d="M311.6,205.4l-5.7,13.7h-1.5l-5.7-13.7h1.5l5,11.9l4.9-11.9H311.6z"/>
	<path class="st1" d="M326.6,213h-11.8c0.3,2.8,2.7,5,5.6,5c1.8,0,3.3-0.7,4.4-2l1.2,0.8c-1.4,1.7-3.3,2.7-5.7,2.7c-4,0-7-3.3-7-7.2
		c0-3.9,2.9-7.2,6.8-7.2C323.9,205.1,326.8,208.2,326.6,213z M314.7,211.5h10.3c-0.3-3-2.4-5-5-5C317.2,206.5,315,208.7,314.7,211.5
		z"/>
	<path class="st1" d="M341.2,211v8.1h-1.4V211c0-1.9-0.9-4.5-4.1-4.5s-4.5,2.6-4.5,4.5v8.1h-1.4v-13.7h1.4v2.2
		c0.9-1.4,2.4-2.5,4.5-2.5C339.6,205.1,341.2,208.3,341.2,211z"/>
	<path class="st1" d="M354.4,198.6v24.5H353v-24.5H354.4z"/>
	<path class="st1" d="M378.5,213h-11.8c0.3,2.8,2.7,5,5.6,5c1.8,0,3.3-0.7,4.4-2l1.2,0.8c-1.4,1.7-3.3,2.7-5.7,2.7c-4,0-7-3.3-7-7.2
		c0-3.9,2.9-7.2,6.8-7.2C375.9,205.1,378.8,208.2,378.5,213z M366.7,211.5H377c-0.3-3-2.4-5-5-5C369.1,206.5,367,208.7,366.7,211.5z
		"/>
	<path class="st1" d="M400.5,210.5v8.6h-1.5v-8.6c0-1.9-0.9-4-3.5-4c-2.8,0-3.8,2.4-3.8,4.3v8.3h-1.5v-8.6c0-1.9-0.9-4-3.5-4
		c-2.8,0-3.8,2.4-3.8,4.3v8.3h-1.5v-13.7h1.5v2.1c0.8-1.4,2-2.4,3.8-2.4c2.2,0,3.6,1.2,4.4,2.8c0.8-1.6,2.4-2.8,4.3-2.8
		C398.9,205.1,400.5,207.8,400.5,210.5z"/>
	<path class="st1" d="M416.1,211v8.1h-1.4V211c0-1.9-0.9-4.5-4.1-4.5s-4.6,2.6-4.6,4.5v8.1h-1.4v-13.7h1.4v2.2
		c0.9-1.4,2.4-2.5,4.6-2.5C414.5,205.1,416.1,208.3,416.1,211z"/>
	<path class="st1" d="M419.9,201.5c0-0.5,0.4-0.9,0.9-0.9s0.9,0.4,0.9,0.9c0,0.5-0.4,1-0.9,1S419.9,202.1,419.9,201.5z M420.1,205.4
		h1.5v13.7h-1.5V205.4z"/>
	<path class="st1" d="M436.7,205.4l-7.7,19h-1.5l2.5-6l-5.7-12.9h1.5l4.9,11.1l4.5-11.1H436.7z"/>
	<path class="st1" d="M451.6,213h-11.8c0.3,2.8,2.7,5,5.6,5c1.8,0,3.3-0.7,4.4-2l1.2,0.8c-1.4,1.7-3.3,2.7-5.7,2.7c-4,0-7-3.3-7-7.2
		c0-3.9,2.9-7.2,6.8-7.2C448.9,205.1,451.9,208.2,451.6,213z M439.8,211.5h10.3c-0.3-3-2.4-5-5-5
		C442.2,206.5,440.1,208.7,439.8,211.5z"/>
	<path class="st1" d="M460.6,217.8v1.4c-2.2,0.2-4.7,0-4.7-4.2v-8.2h-2.4v-1.5h2.4v-2.9h1.4v2.9h3.2v1.5h-3.2v8.2
		C457.4,217.1,458,218,460.6,217.8z"/>
</g>
<g>
	<path class="st2" d="M109.2,202.2c-7.6,7.2-23.8,9.4-33.3,7.5c0.3-1.4,0.5-2.6,0.5-2.6c-5.9-1.7-11.6-3.4-18.7-5.5
		c3.7-2.8,5.6-4.3,9.2-7.1c-11.8,1.5-18.8-2.9-24.1-11.2c2.7-0.9,4.8-1.6,8.4-2.8c-10-3.1-16.9-7.6-21.6-14.7
		c6.7-2.3,12.8-4.5,18.9-6.6c-31.2-4-45.3-17-41.2-38.3c5.2,2.6,10.4,5.6,15.8,7.8c5.5,2.2,11.2,3.6,16.9,5.3
		c0.3-0.8,0.2-0.5,0.5-1.2c-1.7-0.8-3.5-1.5-5-2.6c-8.7-6.1-18.1-11.4-25.8-18.7C-1,101.3-2.9,84,4.2,74.1
		c11.9,15.6,28,25.5,44,34.3C38.6,99,27.7,89.9,18.7,79.2c-6.4-7.7-11.6-17-14.8-26.5c-1.1-3.2-1.6-6.5-1.5-9.9
		c0.2-12.2,7.3-24.1,16.1-27.5c4.8,9.3,8.5,19.1,14.2,27.5c0.3,0.4,0.5,0.8,0.8,1.2c10.5,14.5,22.4,28.1,33.7,42
		c4.2,5.2,6.8,6.4,10.9,11.7c2,2.6,3.8,6,5.2,9.8c1.2,7.6,1.7,15.4,1.2,23.2c-0.4,6.8-1.2,13.6-1.8,20.4c-0.6,7.1-1,14.5,0.4,21.6
		c0.8,4.4,2.6,8.7,5.1,12.5c0,0.1,0.1,0.1,0.1,0.1c0.4,0.9,1.1,1.8,1.9,2.6c1.5,1.9,3.2,3.7,5.1,5.3
		C99.5,196.8,104.2,199.8,109.2,202.2L109.2,202.2z"/>
	<polygon class="st2" points="87.4,34.5 73.9,41.6 76.5,26.5 65.5,15.9 80.6,13.7 87.4,0 94.1,13.7 109.2,15.9 98.3,26.5 
		100.9,41.6 	"/>
	<polygon class="st2" points="133.3,53.2 124.2,58 125.9,47.8 118.5,40.6 128.8,39.1 133.3,29.8 137.9,39.1 148.1,40.6 140.7,47.8 
		142.5,58 	"/>
	<polygon class="st2" points="165.5,78.2 159.8,81.2 160.9,74.9 156.3,70.4 162.7,69.4 165.5,63.7 168.4,69.4 174.8,70.4 
		170.1,74.9 171.2,81.2 	"/>
	<g>
		<g>
			<path class="st2" d="M161.9,217.9c-3.4-1.6-6.6-2.7-9.6-4.4c-2.9-1.7-5.5-3.9-8-5.8c0.3,2.3,0.7,4.9,0.8,7.5
				c0.2,4.4-0.4,8.7-2.6,12.7c-2.2,4-5.2,7.1-9.9,8.1c-4.7,1-8.5-1.4-9.3-5.9c-0.1-0.2,0-0.5-0.1-0.8c0.1-0.1,0.2-0.2,0.3-0.3
				c0.1,0.2,0.1,0.4,0.2,0.6c1.8,2.4,4.5,3,6.7,1.5c2.3-1.6,3-4.8,1.6-7.2c-1.7-2.9-5.7-4.3-9.3-3.1c-6.4,2-9.5,9.2-6.7,15.8
				c2.4,5.7,7.1,8.4,12.9,9.4c15.7,2.7,29.6-7.3,32.1-23.1C161.5,221.2,161.7,219.4,161.9,217.9L161.9,217.9z"/>
			<path class="st2" d="M183.7,217.1c-3.9-1.6-7.6-3.1-11.2-4.7c-7.5-3.4-14.1-7.9-19.3-14.4c-2.6-3.3-6.5-4.1-10.4-2.8
				c-1.7,0.6-3,3.1-1.5,5c10.1,12.6,23.2,18.4,39.3,17.4C181.6,217.5,182.5,217.3,183.7,217.1L183.7,217.1z"/>
		</g>
		<path class="st2" d="M162.6,199.2c-2.2-11.8-4.7-23.6-8.9-34.9c0-0.1-0.1-0.2-0.1-0.2c-3.4-9.1-7.4-17.9-13.4-25.7
			c-4.2-5.5-9.2-9.8-14.8-12.8c-0.4-0.2-0.8-0.4-1.2-0.6c-5-2.4-10.5-3.8-16.6-4.3c-0.1,0-0.2,0-0.6,0.1c2.9,1.6,5.3,3.6,6.6,6.9
			c-1.9-1.3-3.6-2.4-5.2-3.5c-4.8-3-9.9-5.6-15.4-7c0.1,2.4,0.2,4.7,0.1,7.1c-0.1,7.1-1.1,14.1-2.1,21.1c-1.2,8.8-2.9,17.7-1.9,26.3
			c0.3,2.6,0.9,5,1.8,7.4c1.7,4.5,4.5,8.5,8,12c3.5,3.6,7.4,6.6,11.6,9.4c0.2-0.6,0.6-1.1,0.6-1.6c0.2-1.4,0.3-2.9,0.2-4.3
			c-0.3-4.4,0.6-8.5,1.9-12.6c2.5-7.7,3.2-15.6,1.3-23.6c-0.3-1.4-0.7-2.7-1.2-3.9c-1.8-4.9-4.9-9.1-8.8-12.7
			c-0.3-0.3-0.7-0.6-0.9-1.2c0.4,0.2,0.9,0.4,1.3,0.7c4.8,3,8.3,6.9,10.4,11.7c1.1,2.5,1.9,5.2,2.2,8.1c0.4,3.1,0.2,6.3,0.2,9.4
			c-0.1,5.7-0.5,11.4,0.7,17.1c0.2,0.8,0.3,1.5,0.6,2.3c1.6,5.1,5.1,8,10.4,8.6c1.6,0.2,3.1,0.2,4.8,0.3c-0.5-2.6-1-5.1-1.5-7.7
			c0.4,0,0.5,0,0.5,0c1.9,2.6,4.3,3.1,7.3,2.2c1.7-0.5,3.6-0.9,5.4-1.2c3.5-0.6,6.3,0.6,8.6,3.3c2.4,2.8,5,5.4,7.6,8.1
			c0.3,0.3,0.7,0.6,1.4,0.8C163.2,202.6,162.9,200.9,162.6,199.2L162.6,199.2z M131.8,162.8c-2.7,0-5-2.3-5-5c0-2.7,2.2-5,5-5
			c2.8,0,5,2.1,5.1,4.9C136.8,160.5,134.6,162.8,131.8,162.8z"/>
	</g>
</g>
</svg>
